<?xml version="1.0" encoding="utf-8"?>
<!-- Generator: Adobe Illustrator 23.0.2, SVG Export Plug-In . SVG Version: 6.00 Build 0)  -->
<svg version="1.1" id="Layer_1" xmlns="http://www.w3.org/2000/svg" xmlns:xlink="http://www.w3.org/1999/xlink" x="0px" y="0px"
	 viewBox="0 0 101.4 139" style="enable-background:new 0 0 101.4 139;" xml:space="preserve">
<style type="text/css">
	.st0{fill:#BCB6AB;}
	.st1{fill:#F5D010;}
	.st2{fill:#F8A33C;}
</style>
<g>
	<g>
		<path class="st0" d="M10.7,113.5c0,0,0.9,5.3-0.4,9s-3.8,10.7,1.2,13c5.1,2.3,8.1,4.6,10.5,2.9c2.1-1.5,3.6-4.2,5.9-8.1
			c1.1-2,6.9-6.3,6.9-6.3L10.7,113.5z"/>
		<path class="st1" d="M10.8,114.1c-6.9-3.6-12.4-11-10.5-28.1c1.9-17.2,3.6-32.3,7.1-45.1s13-30.4,22.2-36.5
			C37.2-0.5,55.4-2.9,72.9,6s28.3,21.5,28.5,32.8S88.6,76.5,76.3,93.7s-22.7,29.8-30.8,30.6c-8,0.8-9.6,0.4-12.8-0.2
			c-0.7-0.2-2.1-0.5-3.5-1.1C22.9,120.1,10.8,114.1,10.8,114.1z"/>
	</g>
	<path class="st2" d="M19.6,104.7c-4.2,1.5,6.2-38.9,8.5-44s11.2-4.3,12.7-2.5C42.3,60,35,66.3,33,70.7
		C29.1,78.9,26,102.5,19.6,104.7z"/>
	<path class="st2" d="M34.7,111.6c1.7,4.2,25.3-30.1,27.7-35.2c2.3-5.1-4.1-11.3-6.4-11.3c-2.3,0.1-2.3,9.7-4.3,14.1
		C48,87.5,32.2,105.3,34.7,111.6z"/>
</g>
</svg>
