<?xml version="1.0" encoding="utf-8"?>
<!-- Generator: Adobe Illustrator 23.0.2, SVG Export Plug-In . SVG Version: 6.00 Build 0)  -->
<svg version="1.1" id="Layer_1" xmlns="http://www.w3.org/2000/svg" xmlns:xlink="http://www.w3.org/1999/xlink" x="0px" y="0px"
	 viewBox="0 0 49.5 69.7" style="enable-background:new 0 0 49.5 69.7;" xml:space="preserve">
<style type="text/css">
	.st0{fill:#343640;}
	.st1{fill:#6B7082;}
</style>
<g>
	<path class="st0" d="M47.4,46.1c5-21.6-0.2-42.9-0.4-43.8c-0.2-0.8-0.8-1.5-1.6-1.9c-0.8-0.4-1.8-0.4-2.5,0
		C42,0.7,22.3,9.9,8.5,27.3c-9,11.2-9.3,19.9-7.9,25.2c1.5,6,5.7,10.9,12.2,14.4c0.1,0.1,0.2,0.1,0.3,0.2c0,0,0.1,0,0.1,0.1
		c0.1,0.1,0.2,0.1,0.4,0.1c6.8,2.9,13.3,3.1,18.9,0.6C37.5,65.7,44.2,60.1,47.4,46.1z"/>
	<g>
		<path class="st1" d="M42.6,0.3c-0.3,0.2-1.2,0.6-2.5,1.3C30.1,9.4,5.3,31.7,5.3,61.1c1.1,1.2,2.3,2.3,3.7,3.4
			C10.4,56.6,17.1,27.7,42.6,0.3z"/>
		<path class="st1" d="M45.8,0.7c-0.2-0.1-0.3-0.3-0.4-0.3c-0.3-0.1-0.6-0.2-0.9-0.2C39.1,7.6,18.7,38,11.2,66
			c0.5,0.3,1,0.6,1.5,0.9C15.9,59.7,28,32.5,45.8,0.7z"/>
		<path class="st1" d="M48.1,7.9c-0.1-0.6-0.2-1.2-0.3-1.7C44.9,19.6,36.3,54,21,69.5c1.5,0.2,3.1,0.3,4.5,0.2
			C31.6,63.5,43.2,46.9,48.1,7.9z"/>
		<path class="st1" d="M32.5,68c1.8-0.8,4.9-4.7,6.5-7.5c3.7-6.6,7.9-15.1,10.5-35.3c0-1.3,0-2.5-0.1-3.7
			c-2.4,13.7-8.1,38.4-19.6,47.4C30.7,68.7,31.6,68.4,32.5,68z"/>
		<path class="st1" d="M21.2,14.4c0,0-20.5,21.2-19.2,42.2C2,56.5-4.9,39.5,21.2,14.4z"/>
	</g>
</g>
</svg>
