<?xml version="1.0" encoding="utf-8"?>
<!-- Generator: Adobe Illustrator 16.0.0, SVG Export Plug-In . SVG Version: 6.00 Build 0)  -->
<!DOCTYPE svg PUBLIC "-//W3C//DTD SVG 1.1//EN" "http://www.w3.org/Graphics/SVG/1.1/DTD/svg11.dtd">
<svg version="1.1" id="Слой_1" xmlns="http://www.w3.org/2000/svg" xmlns:xlink="http://www.w3.org/1999/xlink" x="0px" y="0px"
	 width="196px" height="295.041px" viewBox="0 0 196 295.041" enable-background="new 0 0 196 295.041" xml:space="preserve">
<g>
	<defs>
		<rect id="SVGID_1_" width="196" height="295.041"/>
	</defs>
	<clipPath id="SVGID_2_">
		<use xlink:href="#SVGID_1_"  overflow="visible"/>
	</clipPath>
	<path clip-path="url(#SVGID_2_)" fill-rule="evenodd" clip-rule="evenodd" fill="#75EE58" d="M98,0c54,0,98,44,98,98
		c0,35-13,55-30,82c-22,36-42,74-63,112c-1,3-5,4-9,2c-1,0-2-1-2-2c-21-38-41-76-63-112c-17-27-29-47-29-82C0,44,44,0,98,0 M98,67
		c19,0,35,16,35,35s-16,35-35,35c-20,0-35-16-35-35S78,67,98,67"/>
</g>
</svg>
