<?xml version="1.0" encoding="utf-8"?>
<!-- Generator: Adobe Illustrator 16.0.0, SVG Export Plug-In . SVG Version: 6.00 Build 0)  -->
<!DOCTYPE svg PUBLIC "-//W3C//DTD SVG 1.1//EN" "http://www.w3.org/Graphics/SVG/1.1/DTD/svg11.dtd">
<svg version="1.1" id="Слой_1" xmlns="http://www.w3.org/2000/svg" xmlns:xlink="http://www.w3.org/1999/xlink" x="0px" y="0px"
	 width="301.086px" height="316.578px" viewBox="0 0 301.086 316.578" enable-background="new 0 0 301.086 316.578"
	 xml:space="preserve">
<g>
	<g>
		<defs>
			<rect id="SVGID_1_" x="0" width="301.086" height="316.578"/>
		</defs>
		<clipPath id="SVGID_2_">
			<use xlink:href="#SVGID_1_"  overflow="visible"/>
		</clipPath>
		<path clip-path="url(#SVGID_2_)" fill="#75EE58" d="M88,20.024c-3-10-6-18-16-19l-19-1c-20-1-53,29-53,79c1,87,131,229,217,237
			c51,5,83.001-25,84.001-46v-18c1-10-7.001-14-17.001-18c-19-7-38-16-57-23c-8-3-15,2-20,5c-7,6-12,10-18,17c-5,4-10,6-15,1
			c-43-22-78-60-96-104c-4-6-2-11,3-15c7-6,12-11,18-17c4-4,9-11,7-19C100,60.024,94,39.024,88,20.024"/>
	</g>
</g>
</svg>
