<?xml version="1.0" encoding="utf-8"?>
<!-- Generator: Adobe Illustrator 16.0.0, SVG Export Plug-In . SVG Version: 6.00 Build 0)  -->
<!DOCTYPE svg PUBLIC "-//W3C//DTD SVG 1.1//EN" "http://www.w3.org/Graphics/SVG/1.1/DTD/svg11.dtd">
<svg version="1.1" id="Слой_1" xmlns="http://www.w3.org/2000/svg" xmlns:xlink="http://www.w3.org/1999/xlink" x="0px" y="0px"
	 width="786.046px" height="956.482px" viewBox="0 0 786.046 956.482" enable-background="new 0 0 786.046 956.482"
	 xml:space="preserve">
<g>
	<defs>
		<rect id="SVGID_1_" width="786.046" height="956.482"/>
	</defs>
	<clipPath id="SVGID_2_">
		<use xlink:href="#SVGID_1_"  overflow="visible"/>
	</clipPath>
	<path clip-path="url(#SVGID_2_)" fill="#BAB4A9" d="M94.119,552.843c-0.622-2.282-2.656-3.747-4.898-3.854l1.82-37.873
		C92.58,479.131,33.509,343.263,32.003,313.5c-2.349-46.204-2.957-191.969-26.591-77.955
		C-18.216,349.559,42.174,499.647,58.97,523.736l26.309,26.772c-1.324,1.311-1.987,3.231-1.458,5.165"/>
	<path clip-path="url(#SVGID_2_)" fill="#BAB4A9" d="M781.254,350.811c-0.08-5.166-4.297-9.294-9.448-9.294
		c-0.04,0-0.087,0-0.127,0.007c-5.213,0.06-9.382,4.349-9.321,9.555c0.073,7.012-1.927,27.448-12.011,37.645
		c-2.166,2.186-4.609,3.802-7.361,4.87V278.989c0-5.212-4.229-9.448-9.448-9.448c-5.213,0-9.447,4.236-9.447,9.448v82.28
		c-2.896-1.064-5.456-2.71-7.713-4.987c-10.076-10.198-12.084-30.626-12.011-37.639c0.074-5.212-4.089-9.495-9.301-9.569
		c-5.106-0.12-9.515,4.082-9.595,9.301c-0.021,1.345-0.281,33.163,17.417,51.129c5.912,6.002,13.02,9.79,21.202,11.325v23.784
		c0,24.109-6.565,42.269-20.067,55.518c-32.42,31.798-100.077,30.493-159.757,29.369c-10.861-0.208-21.452-0.407-31.543-0.407
		c-48.771,0-76.238,40.794-91.587,82.644V386.213l13.474-45.266h19.481c7.861,0,14.238-6.377,14.238-14.239
		c0-4.55-2.168-8.551-5.485-11.161c8.384-6.785,11.681-19.683,16.265-32.229l-65.374-66.397l-68.825,49.612l3.567,16.3
		c4.878,9.676,9.26,20.676,16.334,29.777c-7.201,0.709-12.848,6.711-12.848,14.098c0,7.862,6.377,14.239,14.239,14.239h20.438
		l15.599,44.921v286.036c-18.195-37.979-52.702-80.304-116.16-80.304c-59.327,0-68.338-26.525-69.351-53.482
		c8.055-1.571,15.067-5.328,20.912-11.256c17.698-17.974,17.43-49.791,17.411-51.136c-0.081-5.166-4.296-9.294-9.448-9.294
		c-0.04,0-0.087,0-0.128,0.006c-5.212,0.061-9.381,4.35-9.321,9.556c0.074,7.012-1.927,27.448-12.01,37.645
		c-2.211,2.231-4.712,3.861-7.535,4.928V413.884c0-5.212-4.235-9.448-9.448-9.448c-5.219,0-9.448,4.236-9.448,9.448v72.242
		c-2.824-1.066-5.327-2.696-7.538-4.929c-10.077-10.198-12.085-30.626-12.012-37.639c0.074-5.212-4.088-9.495-9.301-9.569
		c-4.904,0.181-9.508,4.082-9.595,9.301c-0.02,1.345-0.281,33.163,17.418,51.128c5.869,5.96,12.922,9.729,21.028,11.284v25.909
		c0,33.865,9.16,78.885,88.366,78.885c95.526,0,114.618,112.033,116.16,122.302v78.514c-20.634-44.453-58.469-86.135-114.997-97.304
		c-105.423-20.837-166.796-75.191-193.133-171.064c-1.392-5.032-6.597-7.983-11.616-6.612c-5.032,1.379-7.989,6.578-6.611,11.61
		c28.458,103.562,94.448,162.219,207.693,184.601c80.952,15.999,118.664,103.482,118.664,157.569v56.922
		c0,5.22,4.237,9.448,9.45,9.448c5.211,0,9.447-4.229,9.447-9.448V661.82c0.51-6.839,12.551-153.832,91.587-153.832
		c9.976,0,20.449,0.201,31.181,0.401c63.408,1.218,135.273,2.583,173.354-34.775c15.337-15.048,23.858-35.336,25.436-60.356
		c8.159-1.542,15.247-5.324,21.149-11.312C781.541,383.974,781.273,352.156,781.254,350.811"/>
	<path clip-path="url(#SVGID_2_)" fill="#967476" d="M748.07,250.387c0-23.982-6.377-43.42-14.239-43.42
		c-7.869,0-14.246,19.438-14.246,43.42c0,23.982,0,43.42,14.246,43.42C748.07,293.807,748.07,274.369,748.07,250.387"/>
	<path clip-path="url(#SVGID_2_)" fill="#F5D010" d="M786.047,313.78c0-23.982-6.378-43.42-14.239-43.42
		c-7.869,0-14.246,19.438-14.246,43.42s0,43.42,14.246,43.42C786.047,357.2,786.047,337.762,786.047,313.78"/>
	<path clip-path="url(#SVGID_2_)" fill="#F5D010" d="M708.904,279.191c0-23.982-6.377-43.42-14.238-43.42
		c-7.869,0-14.246,19.438-14.246,43.42s0,43.42,14.246,43.42C708.904,322.611,708.904,303.173,708.904,279.191"/>
	<path clip-path="url(#SVGID_2_)" fill="#F5D010" d="M221.313,375.531c0-23.982-6.377-43.42-14.239-43.42
		c-7.868,0-14.245,19.438-14.245,43.42c0,23.982,0,43.42,14.245,43.42C221.313,418.951,221.313,399.513,221.313,375.531"/>
	<path clip-path="url(#SVGID_2_)" fill="#967476" d="M260.501,436.896c0-23.982-6.377-43.42-14.239-43.42
		c-7.869,0-14.246,19.438-14.246,43.42s0,43.42,14.246,43.42C260.501,480.316,260.501,460.878,260.501,436.896"/>
	<path clip-path="url(#SVGID_2_)" fill="#F5D010" d="M182.149,407.431c0-23.982-6.376-43.42-14.238-43.42
		c-7.869,0-14.246,19.438-14.246,43.42c0,23.982,0,43.42,14.246,43.42C182.149,450.852,182.149,431.414,182.149,407.431"/>
	<path clip-path="url(#SVGID_2_)" fill="#F8A33C" d="M387.543,196.747c-57.084,6.109-177.388,4.182-192.424-60.436
		c-15.035-64.619,22.129-101.602,40.089-113.412c17.966-11.804,86.412-40.818,112.769-7.167
		c26.357,33.645,66.399,83.221,67.061,121.214C415.707,174.933,420.397,193.227,387.543,196.747"/>
	<path clip-path="url(#SVGID_2_)" fill="#F5D010" d="M387.543,169.891c-57.084-6.109-189.104-23.473-204.14,41.145
		c-15.036,64.619,22.128,101.602,40.088,113.412c17.959,11.81,86.412,40.817,112.77,7.167
		c26.357-33.645,78.115-63.93,78.776-101.923C415.707,191.705,420.397,173.411,387.543,169.891"/>
	<path clip-path="url(#SVGID_2_)" fill="#F8A33C" d="M443.752,196.747c57.084,6.109,177.389,4.182,192.424-60.436
		c15.035-64.619-22.128-101.602-40.088-113.412c-17.96-11.804-86.412-40.818-112.771-7.167
		c-26.356,33.645-66.397,83.221-67.06,121.214C415.588,174.933,410.897,193.227,443.752,196.747"/>
	<path clip-path="url(#SVGID_2_)" fill="#F5D010" d="M443.752,169.891c57.084-6.109,189.104-23.473,204.141,41.145
		c15.042,64.619-22.129,101.602-40.088,113.412c-17.96,11.81-86.413,40.817-112.771,7.167
		c-26.356-33.645-82.679-63.93-83.347-101.923C411.018,191.705,410.897,173.411,443.752,169.891"/>
	<path clip-path="url(#SVGID_2_)" fill="#967476" d="M399.828,197.487c-2.95,0-5.34-2.396-5.34-5.34
		c0-44.564-12.513-56.388-26.029-62.517c-2.691-1.225-3.875-4.383-2.657-7.073c1.212-2.683,4.377-3.874,7.066-2.656
		c15.973,7.246,32.3,21.499,32.3,72.246C405.169,195.091,402.778,197.487,399.828,197.487"/>
	<path clip-path="url(#SVGID_2_)" fill="#F5D010" d="M379.532,121.814c-1.626-4.898-6.919-7.548-11.816-5.915
		c-4.899,1.626-7.548,6.919-5.922,11.817c1.633,4.898,6.925,7.548,11.816,5.915C378.509,132.005,381.158,126.712,379.532,121.814"/>
	<path clip-path="url(#SVGID_2_)" fill="#967476" d="M428.962,197.487c-2.95,0-5.341-2.396-5.341-5.34
		c0-50.754,16.327-65,32.301-72.246c2.688-1.218,5.849-0.027,7.071,2.656c1.212,2.69,0.028,5.848-2.655,7.073
		c-13.523,6.129-26.036,17.946-26.036,62.517C434.302,195.091,431.912,197.487,428.962,197.487"/>
	<path clip-path="url(#SVGID_2_)" fill="#F5D010" d="M449.257,121.814c1.626-4.898,6.919-7.548,11.815-5.915
		c4.899,1.626,7.548,6.919,5.922,11.817c-1.633,4.898-6.925,7.548-11.815,5.915C450.279,132.005,447.631,126.712,449.257,121.814"/>
	<path clip-path="url(#SVGID_2_)" fill="#967476" d="M415.277,197.487c-2.529,0-4.771-1.8-5.246-4.376
		c-0.462-2.496-10.935-61.407,14.56-81.856c2.302-1.846,5.667-1.472,7.508,0.823c1.848,2.296,1.479,5.661-0.823,7.508
		c-17.075,13.697-13.544,56.328-10.738,71.598c0.535,2.897-1.387,5.687-4.29,6.216C415.925,197.46,415.598,197.487,415.277,197.487"
		/>
	<path clip-path="url(#SVGID_2_)" fill="#F5D010" d="M440.203,108.713c-1.626-4.897-6.92-7.548-11.817-5.915
		c-4.898,1.626-7.547,6.919-5.922,11.817c1.633,4.898,6.926,7.548,11.824,5.915C439.186,118.905,441.829,113.612,440.203,108.713"/>
</g>
</svg>
