<?xml version="1.0" encoding="utf-8"?>
<!-- Generator: Adobe Illustrator 16.0.0, SVG Export Plug-In . SVG Version: 6.00 Build 0)  -->
<!DOCTYPE svg PUBLIC "-//W3C//DTD SVG 1.1//EN" "http://www.w3.org/Graphics/SVG/1.1/DTD/svg11.dtd">
<svg version="1.1" id="Слой_1" xmlns="http://www.w3.org/2000/svg" xmlns:xlink="http://www.w3.org/1999/xlink" x="0px" y="0px"
	 width="939.375px" height="1722.06px" viewBox="0 0 939.375 1722.06" enable-background="new 0 0 939.375 1722.06"
	 xml:space="preserve">
<g>
	<defs>
		<rect id="SVGID_1_" y="-0.004" width="939.375" height="1722.064"/>
	</defs>
	<clipPath id="SVGID_2_">
		<use xlink:href="#SVGID_1_"  overflow="visible"/>
	</clipPath>
	<path clip-path="url(#SVGID_2_)" fill="#95C23D" d="M334.754,947.424c0.021,0.976,0.03,1.944,0.03,2.903v761.101
		c0,5.874,4.768,10.632,10.632,10.632c5.865,0,10.632-4.758,10.632-10.632V693.448c0.572-7.697,14.122-173.094,103.055-173.094
		c11.225,0,23.008,0.225,35.085,0.451c71.347,1.371,152.21,2.907,195.061-39.13c17.258-16.932,26.847-39.76,28.621-67.913
		c9.181-1.736,17.153-5.991,23.798-12.729c19.915-20.223,19.611-56.024,19.591-57.537c-0.09-5.813-4.834-10.458-10.631-10.458
		c-0.045,0-0.099,0-0.145,0.006c-5.865,0.069-10.555,4.895-10.488,10.753c0.083,7.89-2.168,30.885-13.514,42.359
		c-2.438,2.459-5.186,4.278-8.283,5.479V262.68c0-5.865-4.759-10.631-10.632-10.631c-5.863,0-10.63,4.766-10.63,10.631v92.583
		c-3.257-1.197-6.139-3.049-8.678-5.612c-11.339-11.475-13.598-34.462-13.516-42.352c0.083-5.865-4.6-10.684-10.467-10.767
		c-5.743-0.135-10.706,4.593-10.795,10.466c-0.021,1.513-0.315,37.316,19.598,57.53c6.652,6.755,14.651,11.017,23.857,12.744v26.762
		c0,27.129-7.387,47.562-22.58,62.47c-36.479,35.779-112.607,34.311-179.762,33.046c-12.219-0.233-24.138-0.459-35.492-0.459
		c-54.877,0-85.784,45.903-103.055,92.993V383.33l15.162-50.934h21.919c8.847,0,16.022-7.175,16.022-16.022
		c0-5.12-2.439-9.622-6.173-12.558c9.433-7.635,13.144-22.147,18.302-36.265l-73.559-74.711l-77.446,55.824l4.014,18.342
		c5.489,10.886,10.422,23.264,18.38,33.504c-8.102,0.799-14.456,7.552-14.456,15.864c0,8.847,7.175,16.022,16.022,16.022h22.997
		l17.552,50.546v321.854c-20.473-42.735-59.301-90.359-130.706-90.359c-66.756,0-76.893-29.846-78.034-60.181
		c9.064-1.767,16.952-5.993,23.529-12.665c19.916-20.223,19.615-56.025,19.593-57.538c-0.092-5.813-4.834-10.458-10.633-10.458
		c-0.045,0-0.097,0-0.143,0.007c-5.865,0.069-10.555,4.895-10.488,10.753c0.082,7.89-2.169,30.885-13.515,42.359
		c-2.487,2.51-5.301,4.345-8.477,5.544V414.466c0-5.864-4.766-10.631-10.632-10.631c-5.873,0-10.63,4.767-10.63,10.631v81.288
		c-3.178-1.2-5.995-3.034-8.482-5.546c-11.34-11.475-13.599-34.461-13.516-42.352c0.083-5.866-4.6-10.684-10.465-10.767
		c-5.519,0.204-10.701,4.593-10.798,10.466c-0.023,1.513-0.316,37.315,19.598,57.531c6.606,6.705,14.54,10.946,23.663,12.696v29.154
		c0,38.106,10.307,88.763,99.43,88.763c107.488,0,128.972,126.062,130.706,137.615v88.345L334.754,947.424z"/>
	<path clip-path="url(#SVGID_2_)" fill="#0D543D" d="M441.183,517.737l65.962,194.987c15.468,45.73,60.519,55.156,75.877,53.176
		c16.071-2.07,26.597-8.921,24.744-23.995c-1.545-12.579-39.101-31.506-47.549-53.646
		C551.764,666.118,485.745,539.201,441.183,517.737"/>
	<path clip-path="url(#SVGID_2_)" fill="#95C23D" d="M542.887,691.483c-10.025,4.64-16.41,17.832-12.871,28.298
		c3.539,10.462,16.882,15.568,27.343,12.027c10.465-3.538,17.109-18.231,13.57-28.696
		C567.389,692.648,556.258,685.296,542.887,691.483"/>
	<path clip-path="url(#SVGID_2_)" fill="#95C23D" d="M511.289,633.468c-10.025,4.64-16.412,17.832-12.871,28.298
		c3.538,10.462,16.881,15.568,27.342,12.027c10.465-3.538,17.11-18.231,13.57-28.696C535.79,634.633,524.66,627.281,511.289,633.468
		"/>
	<path clip-path="url(#SVGID_2_)" fill="#95C23D" d="M478.598,577.42c-8.579,3.97-14.046,15.264-11.017,24.217
		c3.031,8.958,14.448,13.327,23.405,10.297c8.954-3.03,14.643-15.604,11.611-24.563C499.567,578.418,490.037,572.128,478.598,577.42
		"/>
	<path clip-path="url(#SVGID_2_)" fill="#0D543D" d="M703.709,261.942l162.517-126.33c38.114-29.629,32.224-75.276,25.313-89.131
		c-7.234-14.501-17.16-22.193-30.79-15.493c-11.374,5.589-16.922,47.276-35.06,62.527
		C807.552,108.771,709.351,212.802,703.709,261.942"/>
	<path clip-path="url(#SVGID_2_)" fill="#95C23D" d="M834.425,108.825c7.674,7.946,22.232,9.645,30.955,2.866
		c8.719-6.779,9.162-21.057,2.384-29.778c-6.78-8.721-22.839-10.173-31.563-3.394C827.48,85.3,824.191,98.227,834.425,108.825"/>
	<path clip-path="url(#SVGID_2_)" fill="#95C23D" d="M790.003,157.72c7.673,7.946,22.232,9.646,30.955,2.866
		c8.719-6.778,9.161-21.057,2.384-29.777c-6.78-8.722-22.841-10.174-31.563-3.395C783.059,134.196,779.769,147.121,790.003,157.72"
		/>
	<path clip-path="url(#SVGID_2_)" fill="#95C23D" d="M747.798,207.003c6.565,6.801,19.026,8.255,26.49,2.453
		c7.466-5.803,7.846-18.02,2.042-25.487c-5.803-7.462-19.549-8.705-27.013-2.903C741.853,186.867,739.043,197.935,747.798,207.003"
		/>
	<path clip-path="url(#SVGID_2_)" fill="#0D543D" d="M746.467,357.686l162.518-126.332c38.113-29.627,32.224-75.273,25.312-89.13
		c-7.233-14.5-17.16-22.192-30.79-15.492c-11.374,5.589-16.921,47.277-35.059,62.527
		C850.31,204.514,752.109,308.547,746.467,357.686"/>
	<path clip-path="url(#SVGID_2_)" fill="#95C23D" d="M877.184,204.569c7.674,7.946,22.231,9.646,30.954,2.866
		c8.72-6.779,9.163-21.058,2.385-29.778c-6.781-8.721-22.839-10.173-31.563-3.394C870.238,181.044,866.949,193.971,877.184,204.569"
		/>
	<path clip-path="url(#SVGID_2_)" fill="#95C23D" d="M832.762,253.464c7.673,7.947,22.231,9.646,30.955,2.866
		c8.719-6.778,9.16-21.056,2.384-29.778c-6.781-8.721-22.84-10.173-31.563-3.393C825.816,229.94,822.526,242.866,832.762,253.464"/>
	<path clip-path="url(#SVGID_2_)" fill="#95C23D" d="M790.556,302.748c6.566,6.801,19.027,8.255,26.491,2.453
		c7.465-5.803,7.845-18.021,2.042-25.487c-5.803-7.462-19.549-8.705-27.013-2.903C784.611,282.611,781.801,293.679,790.556,302.748"
		/>
	<path clip-path="url(#SVGID_2_)" fill="#0D543D" d="M654.268,305.1l-59.75-114.683c-14.013-26.895,7.435-54.62,17.355-61.946
		c10.385-7.669,19.949-10.445,26.455-3.3c5.43,5.962-6.877,33.601-0.65,47.131C643.899,185.834,669.372,272.711,654.268,305.1"/>
	<path clip-path="url(#SVGID_2_)" fill="#95C23D" d="M625.981,180.165c-8.161,3.415-18.511,1.403-21.718-4.752
		c-3.204-6.151,1.981-15.31,9.843-19.406c7.864-4.097,19.118-1.61,22.324,4.546C639.638,166.708,636.866,175.609,625.981,180.165"/>
	<path clip-path="url(#SVGID_2_)" fill="#95C23D" d="M636.799,220.63c-8.162,3.415-18.511,1.402-21.718-4.752
		c-3.205-6.153,1.981-15.311,9.843-19.406c7.863-4.097,19.117-1.61,22.325,4.545C650.454,207.172,647.683,216.074,636.799,220.63"/>
	<path clip-path="url(#SVGID_2_)" fill="#95C23D" d="M645.99,260.871c-6.983,2.922-15.842,1.2-18.586-4.066
		c-2.745-5.268,1.694-13.104,8.425-16.611c6.728-3.506,16.361-1.377,19.106,3.892C657.678,249.351,655.304,256.973,645.99,260.871"
		/>
	<path clip-path="url(#SVGID_2_)" fill="#FAD9C2" d="M89.073,365.777c-33.396-48.335-89.7-157.75-35.505-204.256
		c13.454-11.545,26.844-19.321,39.676-24.335c13.786-5.385,36.264,52.82,48.152,52.57c17.009-0.355,22.117-57.126,32.206-53.163
		c2.736,1.076,5.15,2.173,7.209,3.224c19.909,10.175,80.581,57.07,61.313,97.988c-19.265,40.912-47.068,102.285-82.886,122.257
		C123.432,380.038,108.298,393.594,89.073,365.777"/>
	<path clip-path="url(#SVGID_2_)" fill="#FFD500" d="M102.74,306.368C69.17,319.497-9.406,348.055,0.929,388.406
		C11.267,428.76,42.68,438.6,56.105,439.978c13.425,1.379,59.961-2.284,64.9-28.663c4.939-26.376,25.004-58.236,14.37-79.594
		C124.747,310.365,122.062,298.813,102.74,306.368"/>
	<path clip-path="url(#SVGID_2_)" fill="#FFD500" d="M146.029,298.748c31.735,17.092,106.281,54.943,91.142,93.75
		c-15.139,38.809-47.516,44.775-61.01,44.521c-13.494-0.255-59.244-9.521-60.955-36.303c-1.714-26.78-20.141-62.452-7.006-82.369
		C121.332,298.433,127.762,288.912,146.029,298.748"/>
	<path clip-path="url(#SVGID_2_)" fill="#0D543D" d="M105.063,291.118c-7.771,0.823-15.045,8.073-15.045,15.743
		s7.783,13.996,15.604,13.996c7.815,0,15.598-8.184,15.598-15.855C121.219,297.337,115.427,290.026,105.063,291.118"/>
	<path clip-path="url(#SVGID_2_)" fill="#0D543D" d="M131.433,317.152c-7.771,0.823-15.045,8.072-15.045,15.743
		c0,7.67,7.783,13.996,15.605,13.996c7.814,0,15.597-8.184,15.597-15.856C147.589,323.372,141.797,316.06,131.433,317.152"/>
	<path clip-path="url(#SVGID_2_)" fill="#0D543D" d="M143.99,286.175c-7.771,0.822-15.045,8.072-15.045,15.743
		c0,7.67,7.783,13.996,15.604,13.996c7.815,0,15.598-8.184,15.598-15.855C160.147,292.395,154.355,285.083,143.99,286.175"/>
	<path clip-path="url(#SVGID_2_)" fill="#FAD9C2" d="M314.855,229.378c-33.397-48.335-89.701-157.75-35.506-204.255
		C292.803,13.578,306.194,5.8,319.026,0.788c13.786-5.385,36.263,52.819,48.151,52.571c17.01-0.355,22.117-57.127,32.206-53.164
		c2.735,1.074,5.15,2.174,7.209,3.224c19.909,10.174,80.582,57.07,61.313,97.987c-19.265,40.914-47.068,102.286-82.885,122.258
		C349.213,243.638,334.08,257.195,314.855,229.378"/>
	<path clip-path="url(#SVGID_2_)" fill="#FFD500" d="M328.522,169.969c-33.571,13.128-112.147,41.686-101.812,82.038
		c10.338,40.353,41.751,50.194,55.176,51.573c13.425,1.378,59.961-2.284,64.9-28.664c4.939-26.377,25.004-58.237,14.371-79.595
		C350.529,173.966,347.843,162.416,328.522,169.969"/>
	<path clip-path="url(#SVGID_2_)" fill="#FFD500" d="M371.812,162.349c31.734,17.091,106.28,54.943,91.14,93.75
		c-15.137,38.809-47.514,44.776-61.008,44.52c-13.494-0.255-59.244-9.52-60.955-36.303c-1.714-26.78-20.143-62.452-7.006-82.369
		C347.114,162.033,353.543,152.514,371.812,162.349"/>
	<path clip-path="url(#SVGID_2_)" fill="#0D543D" d="M330.844,154.719c-7.771,0.822-15.045,8.072-15.045,15.743
		c0,7.67,7.783,13.995,15.605,13.995c7.814,0,15.597-8.184,15.597-15.854C347,160.939,341.208,153.626,330.844,154.719"/>
	<path clip-path="url(#SVGID_2_)" fill="#0D543D" d="M357.214,180.753c-7.77,0.823-15.045,8.072-15.045,15.743
		c0,7.669,7.783,13.995,15.604,13.995c7.815,0,15.598-8.185,15.598-15.855C373.371,186.972,367.58,179.661,357.214,180.753"/>
	<path clip-path="url(#SVGID_2_)" fill="#0D543D" d="M369.771,149.777c-7.77,0.823-15.045,8.072-15.045,15.742
		c0,7.67,7.783,13.996,15.604,13.996c7.815,0,15.598-8.185,15.598-15.855C385.928,155.996,380.136,148.684,369.771,149.777"/>
	<path clip-path="url(#SVGID_2_)" fill="#95C23D" d="M358.603,979.926c-1.362-0.694,0.846,0.563,0.539,0.956
		c0.163-0.209,0.265-2.072,0.314-2.302c0.55-2.529,1.653-4.986,2.732-7.326c2.8-6.068,6.108-11.889,9.226-17.793
		c2.366-4.483,4.61-8.942,5.922-13.849c2.693-10.058,9.351-18.227,15.709-26.264c11.2-14.16,24.661-29.882,42.869-34.591
		c20.377-5.271,38.525,8.089,53.468,20.216c13.512,10.966,31.62,25.224,29.62,44.776c-1.697,16.597-17.761,28.22-32.53,32.84
		c-7.354,2.299-19.833,5.282-26.656,0.259c-6.668-4.909-4.74-15.845-2.918-22.646c4.83-18.017,14.06-35.536,26.389-49.542
		c25.156-28.578,69.229-44.008,104.384-23.973c15.478,8.822,27.173,24.092,31.407,41.422c2.023,8.29,2.641,18.206-0.302,26.366
		c-3.319,9.204-14.985,9.334-22.62,5.808c-13.16-6.075-19.667-22.22-18.96-36.006c0.911-17.804,15.339-31.924,29.863-40.36
		c16.667-9.681,36.641-15.078,55.871-15.656c17.68-0.532,40.735,3.386,50.693,19.875c3.671,6.081,5.859,15.587-1.903,19.622
		c-6.906,3.588-15.346-2.138-20.101-6.842c-12.324-12.201-14.74-33.181-12.099-49.561c2.849-17.655,11.957-34.42,26.471-45.139
		c14.333-10.586,32.716-15.145,50.37-13.366c8.963,0.903,17.632,3.635,25.552,7.896c5.74,3.088,10.858-5.652,5.11-8.744
		c-39.636-21.329-92.306-5.521-110.984,36.11c-8.925,19.891-10.229,43.358-2.053,63.733c6.166,15.359,26.23,35.431,43.983,23.964
		c19.045-12.301,5.025-37.84-9.532-46.912c-20.84-12.989-47.723-12.714-70.881-7.384c-21.251,4.89-43.389,14.533-57.533,31.741
		c-13.02,15.837-16.771,36.095-8.187,54.997c7.393,16.284,25.821,29.509,44.138,22.469c21.854-8.396,15.621-42.308,8.14-58.597
		c-9.073-19.753-26.741-34.841-47.517-41.024c-22.701-6.76-47.768-3.19-68.702,7.406c-20.82,10.538-37.384,28.579-48.469,48.907
		c-5.371,9.854-10.011,20.63-12.671,31.557c-2.257,9.281-2.93,20.561,3.412,28.454c6.983,8.687,19.017,8.687,29.125,7.175
		c10.132-1.514,20.152-5.382,28.544-11.287c16.642-11.711,26.436-31.344,18.47-51.288c-4.287-10.732-12.434-19.361-20.998-26.877
		c-9.177-8.055-18.877-16.109-29.406-22.342c-10.01-5.923-21.473-10.062-33.256-9.294c-10.825,0.705-20.955,5.027-29.686,11.344
		c-9.522,6.885-17.535,15.525-24.907,24.621c-7.551,9.316-16.063,19.111-19.747,30.721c-2.15,6.78-4.775,12.565-8.168,18.886
		c-3.643,6.788-7.643,13.704-9.954,21.094c-1.551,4.967-2.187,11.693,3.309,14.494C359.289,991.622,364.418,982.888,358.603,979.926
		"/>
</g>
</svg>
