<?xml version="1.0" encoding="utf-8"?>
<!-- Generator: Adobe Illustrator 16.0.0, SVG Export Plug-In . SVG Version: 6.00 Build 0)  -->
<!DOCTYPE svg PUBLIC "-//W3C//DTD SVG 1.1//EN" "http://www.w3.org/Graphics/SVG/1.1/DTD/svg11.dtd">
<svg version="1.1" id="Capa_1" xmlns="http://www.w3.org/2000/svg" xmlns:xlink="http://www.w3.org/1999/xlink" x="0px" y="0px"
	 width="429.379px" height="792px" viewBox="-144.001 348.9 429.379 792" enable-background="new -144.001 348.9 429.379 792"
	 xml:space="preserve">
<g>
	<path fill="#20553f" d="M268.894,348.9H165.876C50.497,348.9-24.5,425.545-24.5,544.222v89.831h-103.018
		c-9.066,0-16.483,7.417-16.483,16.483V780.75c0,9.065,7.417,16.483,16.483,16.483H-24.5v327.184
		c0,9.064,7.417,16.482,16.483,16.482h135.159c9.064,0,16.482-7.417,16.482-16.482V795.585h121.149
		c9.064,0,16.481-7.418,16.481-16.482V648.888c0-4.121-1.647-8.24-4.944-11.538c-3.296-3.296-7.417-4.943-11.538-4.943H143.625
		v-75.821c0-36.263,9.065-55.218,56.042-55.218h69.229c9.065,0,16.482-7.418,16.482-16.482V363.734
		C284.553,356.317,277.959,348.9,268.894,348.9z"/>
</g>
</svg>
