<?xml version="1.0" encoding="utf-8"?>
<!-- Generator: Adobe Illustrator 16.0.0, SVG Export Plug-In . SVG Version: 6.00 Build 0)  -->
<!DOCTYPE svg PUBLIC "-//W3C//DTD SVG 1.1//EN" "http://www.w3.org/Graphics/SVG/1.1/DTD/svg11.dtd">
<svg version="1.1" id="Слой_1" xmlns="http://www.w3.org/2000/svg" xmlns:xlink="http://www.w3.org/1999/xlink" x="0px" y="0px"
	 width="612px" height="610.776px" viewBox="0 90.612 612 610.776" enable-background="new 0 90.612 612 610.776"
	 xml:space="preserve">
<g>
	<g>
		<g>
			<defs>
				<rect id="SVGID_1_" x="0" y="90.612" width="612" height="610.776"/>
			</defs>
			<clipPath id="SVGID_2_">
				<use xlink:href="#SVGID_1_"  overflow="visible"/>
			</clipPath>
			<path clip-path="url(#SVGID_2_)" fill="#20553f" d="M266.832,168.336C119.34,168.336,0,288.288,0,435.167
				C0,582.048,119.34,702,266.832,702c147.491,0,266.831-119.34,266.831-266.832C533.052,288.288,413.712,168.336,266.832,168.336"
				/>
		</g>
	</g>
	<g>
		<g>
			<defs>
				<rect id="SVGID_3_" x="0" y="90.612" width="612" height="610.776"/>
			</defs>
			<clipPath id="SVGID_4_">
				<use xlink:href="#SVGID_3_"  overflow="visible"/>
			</clipPath>
			<path clip-path="url(#SVGID_4_)" fill="#20553f" d="M544.68,90.612c-17.748,0-34.884,7.344-47.735,19.584
				c-12.853,12.852-19.584,29.988-19.584,47.736s7.344,34.884,19.584,47.736c12.239,12.24,29.987,19.584,47.735,19.584
				s34.885-7.344,47.736-19.584C604.656,192.816,612,175.68,612,157.932s-7.345-34.884-19.584-47.736
				C579.564,97.956,562.428,90.612,544.68,90.612"/>
		</g>
	</g>
</g>
</svg>
