<?xml version="1.0" encoding="utf-8"?>
<!-- Generator: Adobe Illustrator 16.0.0, SVG Export Plug-In . SVG Version: 6.00 Build 0)  -->
<!DOCTYPE svg PUBLIC "-//W3C//DTD SVG 1.1//EN" "http://www.w3.org/Graphics/SVG/1.1/DTD/svg11.dtd">
<svg version="1.1" id="Слой_1" xmlns="http://www.w3.org/2000/svg" xmlns:xlink="http://www.w3.org/1999/xlink" x="0px" y="0px"
	 width="612px" height="430.77px" viewBox="0 180.615 612 430.77" enable-background="new 0 180.615 612 430.77"
	 xml:space="preserve">
<g>
	<g>
		<g>
			<g>
				<defs>
					<rect id="SVGID_1_" x="0" y="180.615" width="612" height="430.77"/>
				</defs>
				<clipPath id="SVGID_2_">
					<use xlink:href="#SVGID_1_"  overflow="visible"/>
				</clipPath>
				<path clip-path="url(#SVGID_2_)" fill="#20553f" d="M588.112,217.533c-22.111-26.256-62.779-36.917-140.761-36.917H164.648
					c-79.758,0-121.216,11.451-143.129,39.286C0,247.146,0,287.419,0,342.895v106.015C0,556.7,25.467,611.187,164.648,611.187
					h282.705c67.519,0,105.026-9.477,129.112-32.572c24.875-23.69,35.338-62.582,35.338-129.705V342.895
					C612,284.458,610.421,243.986,588.112,217.533 M392.864,410.609l-128.321,67.122c-2.961,1.577-5.923,2.172-9.082,2.172
					c-3.553,0-7.107-0.987-10.267-2.766c-5.922-3.554-9.476-10.066-9.476-16.979V326.508c0-6.91,3.554-13.227,9.476-16.781
					c5.923-3.553,13.228-3.75,19.348-0.592l128.321,66.729c6.516,3.355,10.661,10.068,10.661,17.57
					C403.525,400.344,399.379,407.253,392.864,410.609"/>
			</g>
		</g>
	</g>
</g>
</svg>
